<?xml version="1.0" encoding="utf-8"?>
<!-- Generator: Adobe Illustrator 23.0.1, SVG Export Plug-In . SVG Version: 6.00 Build 0)  -->
<svg version="1.1" id="Layer_1" xmlns="http://www.w3.org/2000/svg" xmlns:xlink="http://www.w3.org/1999/xlink" x="0px" y="0px"
	 viewBox="0 0 100 100" style="enable-background:new 0 0 100 100;" xml:space="preserve">
<style type="text/css">
	.st0{fill:#FFFFFF;}
</style>
<g>
	<path class="st0" d="M49.1,22L12.7,48c-0.7,0.5-1,1.2-1.1,2c0,0,0,0,0,0c0,0.8,0.4,1.6,1.1,2L49.1,78c0.8,0.5,1.8,0.6,2.6,0.2
		c0.8-0.4,1.4-1.3,1.4-2.2V63.8l32.7,0c1.4,0,2.5-1.1,2.5-2.5l0-22.5c0-1.4-1.1-2.5-2.5-2.5H53.1V24c0-0.9-0.5-1.8-1.4-2.2
		C50.9,21.4,49.9,21.4,49.1,22z"/>
</g>
</svg>
