<?xml version="1.0" encoding="utf-8"?>
<!-- Generator: Adobe Illustrator 23.0.1, SVG Export Plug-In . SVG Version: 6.00 Build 0)  -->
<svg version="1.1" id="Layer_1" xmlns="http://www.w3.org/2000/svg" xmlns:xlink="http://www.w3.org/1999/xlink" x="0px" y="0px"
	 viewBox="0 0 444 92" style="enable-background:new 0 0 444 92;" xml:space="preserve">
<style type="text/css">
	.st0{fill-rule:evenodd;clip-rule:evenodd;fill:#0090D4;}
	.st1{fill:#0090D4;}
</style>
<g>
	<path class="st0" d="M58.7,78l-0.2-0.2C53.7,84.3,46.3,87,38.4,87c-26,0-30.2-22.1-30.2-31.4C8.1,32.2,21.5,9,50.7,9
		c16.7,0,30.7,8.4,30.9,27.8H59.8c-0.6-6.9-4.7-9.2-10.5-9.2c-12.7,0-18.3,13.4-18.3,26.2c0,8.8,3.7,14.6,13.1,14.6
		c6.2,0,11.3-2.2,13.6-8.2H47.3l3.4-16h30.5l-8.6,41H58.1L58.7,78L58.7,78z"/>
	<path class="st0" d="M133.9,66.4c-3,14-13.3,20.2-27.2,20.2c-16.6,0-23.5-8.1-23.5-17c0-1,0.4-3.3,0.6-4.5L91,29.7h17.2L101.8,60
		c-0.4,1.7-0.8,4.5-0.8,5.3c0,1.8-0.5,7.4,6.4,7.4c7.1,0,9.2-6.4,10.5-12.5l6.3-30.5h17.1L133.9,66.4L133.9,66.4z"/>
	<polygon class="st0" points="148.6,29.7 165.5,29.7 176,60 176.1,60 182.3,29.7 198.6,29.7 186.9,85.2 170.1,85.2 159.9,54.1 
		159.8,54.1 153.3,85.2 137.1,85.2 148.6,29.7 	"/>
	<polygon class="st0" points="205.5,29.7 222.3,29.7 232.8,60 233,60 239.1,29.7 255.5,29.7 243.8,85.2 227,85.2 216.7,54.1 
		216.6,54.1 210.3,85.2 194,85.2 205.5,29.7 	"/>
	<polygon class="st0" points="262.6,29.7 308.6,29.7 305.7,43.2 276.9,43.2 275.2,51.3 303.7,51.3 301.4,62.4 272.9,62.4 
		270.9,71.5 299.8,71.5 296.9,85.2 250.9,85.2 262.6,29.7 	"/>
	<path class="st0" d="M315.4,29.7h28.6c12,0,16.6,4.2,16.6,12.2c0,7-3.5,11.6-10.2,13.3h-0.1v0.2c5.1,1,8.4,6,8.4,11.1
		c0,13.3-10.7,18.7-22.9,18.7h-31.9L315.4,29.7L315.4,29.7z M323.3,72h11c3,0,7.2-1,7.2-5.6c0-4.1-3-4.8-6.5-4.8h-9.4L323.3,72
		L323.3,72z M327.6,51.3h9.7c2.7,0,6.1-1,6.1-4.5c0-3.4-2.2-3.9-5.2-3.9h-8.8L327.6,51.3L327.6,51.3z"/>
	<path class="st0" d="M394.1,28.4c15.7,0,25.2,7.4,25.2,24.4c0,18.7-12.2,33.8-31.2,33.8c-15.7,0-25.2-8.3-25.2-24.4
		C362.9,43.5,375.1,28.4,394.1,28.4L394.1,28.4z M388.6,72.7c10.3,0,13.6-12.1,13.6-20.4c0-5-2-10.1-8.6-10.1
		c-10.3,0-13.6,12.1-13.6,20.3C380,67.7,381.9,72.7,388.6,72.7L388.6,72.7z"/>
</g>
<path class="st1" d="M426.8,33.1h3.3c2.2,0,3.4,0.7,3.4,2.6c0,1.6-1,2.2-2.3,2.4l2.4,3.8h-1.8l-2.1-3.8h-1v3.8h-1.8V33.1z
	 M428.6,36.7h1.5c0.9,0,1.7-0.1,1.7-1.2c0-0.9-1-1.1-1.8-1.1h-1.4V36.7z"/>
<path class="st1" d="M435.8,37.5c0,3.3-2.6,5.9-5.9,5.9c-3.3,0-5.9-2.6-5.9-5.9c0-3.3,2.6-5.9,5.9-5.9
	C433.2,31.6,435.8,34.2,435.8,37.5z M429.9,29.4c-4.5,0-8.1,3.6-8.1,8.1c0,4.5,3.6,8.1,8.1,8.1s8.1-3.6,8.1-8.1
	C438,33.1,434.4,29.4,429.9,29.4z"/>
</svg>
